<svg aria-hidden="true" style="position: absolute; width: 0; height: 0; overflow: hidden;" version="1.1" xmlns="http://www.w3.org/2000/svg" xmlns:xlink="http://www.w3.org/1999/xlink">
    <defs>
        <symbol id="icon-check" viewBox="0 0 32 32">
            <path d="M26.54 6.705c0.715 0.52 0.875 1.52 0.355 2.235l-12.8 17.6c-0.275 0.38-0.7 0.615-1.17 0.655s-0.925-0.135-1.255-0.465l-6.4-6.4c-0.625-0.625-0.625-1.64 0-2.265s1.64-0.625 2.265 0l5.075 5.075 11.7-16.085c0.52-0.715 1.52-0.875 2.235-0.355z"></path>
        </symbol>
        <symbol id="icon-amazone" viewBox="0 0 32 32">
            <path d="M17.685 11.335c-2.435 0.090-8.475 0.775-8.475 5.875 0 5.475 6.915 5.7 9.175 2.16 0.325 0.51 1.77 1.875 2.265 2.34l2.84-2.8c0 0-1.615-1.265-1.615-2.64v-7.355c0-1.265-1.225-4.115-5.615-4.115-4.4 0-6.735 2.75-6.735 5.215l3.675 0.34c0.815-2.475 2.71-2.475 2.71-2.475 2.035-0.005 1.775 1.49 1.775 3.455zM17.685 15.675c0 4-4.21 3.4-4.21 0.86 0-2.36 2.525-2.835 4.21-2.89v2.030zM24.485 23.85c-0.385 0.5-3.5 3.35-8.725 3.35s-9.225-3.575-10.45-5.050c-0.34-0.385 0.050-0.565 0.275-0.415 3.665 2.225 9.39 5.89 18.625 1.515 0.375-0.185 0.665 0.1 0.275 0.6zM26.475 23.96c-0.325 0.79-0.8 1.34-1.060 1.55-0.275 0.225-0.475 0.135-0.325-0.19s0.965-2.325 0.635-2.75c-0.325-0.415-1.85-0.215-2.4-0.16-0.54 0.050-0.65 0.1-0.7-0.015-0.115-0.285 1.085-0.775 1.875-0.875 0.785-0.090 2.050-0.040 2.3 0.285 0.185 0.255 0 1.355-0.325 2.155z"></path>
        </symbol>
        <symbol id="icon-apple" viewBox="0 0 32 32">
            <path d="M22.355 16.635c-0.010-1.835 0.82-3.22 2.5-4.24-0.94-1.345-2.36-2.085-4.235-2.23-1.775-0.14-3.715 1.035-4.425 1.035-0.75 0-2.47-0.985-3.82-0.985-2.79 0.045-5.755 2.225-5.755 6.66 0 1.31 0.24 2.665 0.72 4.060 0.64 1.835 2.95 6.335 5.36 6.26 1.26-0.030 2.15-0.895 3.79-0.895 1.59 0 2.415 0.895 3.82 0.895 2.43-0.035 4.52-4.125 5.13-5.965-3.26-1.535-3.085-4.5-3.085-4.595zM19.525 8.425c1.365-1.62 1.24-3.095 1.2-3.625-1.205 0.070-2.6 0.82-3.395 1.745-0.875 0.99-1.39 2.215-1.28 3.595 1.305 0.1 2.495-0.57 3.475-1.715z"></path>
        </symbol>
        <symbol id="icon-meta" viewBox="0 0 32 32">
            <path d="M32 19.095c0 4.565-1.97 7.425-5.515 7.425-3.13 0-4.79-1.73-7.845-6.83l-1.57-2.63c-0.415-0.625-0.725-1.21-1.060-1.75-1.005 1.69-2.355 4.15-2.355 4.15-3.35 5.83-5.23 7.060-7.845 7.060-3.64 0-5.81-2.865-5.81-7.295 0-7.15 3.99-13.905 9.195-13.905 2.51 0 4.69 1.235 7.24 4.475 1.855-2.505 3.905-4.475 6.53-4.475 4.955 0 9.035 6.285 9.035 13.775zM14.37 12.81c-2.145-3.105-3.545-4.025-5.22-4.025-3.095 0-5.69 5.305-5.69 10.5 0 2.425 0.925 3.785 2.48 3.785 1.51 0 2.45-0.95 5.16-5.19 0 0 1.235-1.955 3.27-5.070zM26.56 23.070c1.61 0 2.345-1.375 2.345-3.745 0-6.21-2.715-11.27-6.16-11.27-1.66 0-3.055 1.295-4.745 3.9 0.47 0.69 0.955 1.45 1.465 2.27l1.875 3.12c2.935 4.705 3.675 5.725 5.22 5.725z"></path>
        </symbol>
        <symbol id="icon-youtube" viewBox="0 0 32 32">
            <path d="M29.085 9.405c-0.31-1.185-1.24-2.115-2.415-2.43-2.125-0.575-10.665-0.575-10.665-0.575s-8.54 0-10.67 0.575c-1.175 0.315-2.1 1.245-2.415 2.43-0.57 2.145-0.57 6.615-0.57 6.615s0 4.47 0.57 6.615c0.315 1.18 1.24 2.075 2.415 2.39 2.13 0.575 10.67 0.575 10.67 0.575s8.54 0 10.67-0.575c1.175-0.315 2.1-1.21 2.415-2.39 0.57-2.145 0.57-6.615 0.57-6.615s0-4.47-0.57-6.615zM13.21 20.080v-8.12l7.135 4.060-7.135 4.060z"></path>
        </symbol>
        <symbol id="icon-netflix" viewBox="0 0 32 32">
            <path d="M23.99 28.8h-4.755l-5.41-7.725v4.555l-4.32 3.17h-4.885v-24.11l2.025-1.49h5.4l6.185 8.805v-5.635l4.32-3.17h4.885v23.075l-3.445 2.525zM5.16 4.965v23.035l3.6-2.645v-12.455l10.775 15.38h4.24l2.62-1.91h-3.915l-15.805-22.525-1.51 1.115zM9.285 28.295l4-2.94v-5.050l-3.99-5.72v11.045l-3.63 2.665h3.615zM7.25 3.74l15.53 22.13h4.12v-22.13h-3.99v15.88l-11.145-15.88h-4.515zM18.77 12.78l3.6 5.14v-13.925l-3.6 2.65v6.135z"></path>
        </symbol>
        <symbol id="icon-arrow" viewBox="0 0 32 32">
            <path d="M21.955 14.87c0.625 0.625 0.625 1.64 0 2.265l-8 8c-0.625 0.625-1.64 0.625-2.265 0s-0.625-1.64 0-2.265l6.87-6.87-6.865-6.87c-0.625-0.625-0.625-1.64 0-2.265s1.64-0.625 2.265 0l8 8z"></path>
        </symbol>
    </defs>
</svg>